HIERARCHY
ROOT Hips
{
	OFFSET 0.000000 0.000000 0.000000
	CHANNELS 6 Xposition Yposition Zposition Zrotation Yrotation Xrotation 
	JOINT LHipJoint
	{
		OFFSET 0.000000 0.000000 0.000000
		CHANNELS 3 Zrotation Yrotation Xrotation
		JOINT LeftUpLeg
		{
			OFFSET 1.363060 -1.794630 0.839290
			CHANNELS 3 Zrotation Yrotation Xrotation
			JOINT LeftLeg
			{
				OFFSET 2.448110 -6.726130 0.000000
				CHANNELS 3 Zrotation Yrotation Xrotation
				JOINT LeftFoot
				{
					OFFSET 2.562200 -7.039590 0.000000
					CHANNELS 3 Zrotation Yrotation Xrotation
					JOINT LeftToeBase
					{
						OFFSET 0.157640 -0.433110 2.322550
						CHANNELS 3 Zrotation Yrotation Xrotation
						End Site
						{
							OFFSET 0.000000 0.000000 0.000000
						}
					}
				}
			}
		}
	}
	JOINT RHipJoint
	{
		OFFSET 0.000000 0.000000 0.000000
		CHANNELS 3 Zrotation Yrotation Xrotation
		JOINT RightUpLeg
		{
			OFFSET -1.305520 -1.794630 0.839290
			CHANNELS 3 Zrotation Yrotation Xrotation
			JOINT RightLeg
			{
				OFFSET -2.542530 -6.985550 0.000000
				CHANNELS 3 Zrotation Yrotation Xrotation
				JOINT RightFoot
				{
					OFFSET -2.568260 -7.056230 0.000000
					CHANNELS 3 Zrotation Yrotation Xrotation
					JOINT RightToeBase
					{
						OFFSET -0.164730 -0.452590 2.363150
						CHANNELS 3 Zrotation Yrotation Xrotation
						End Site
						{
							OFFSET 0.000000 0.000000 0.000000
						}
					}
				}
			}
		}
	}
}
MOTION
Frames: 11
Frame Time: 0.008333
-10.075185 16.615647 -1.832476 71.162057 86.107303 96.130949 -8.096058 -0.395804 -0.032222 -14.692940 -4.012084 -49.556075 -2.578355 1.169146 27.846004 0.871704 4.298419 -1.588725 0.828700 -0.000000 -24.743101 11.957038 -1.548871 -4.457226 4.874020 -10.125366 -18.117213 0.591284 -3.580998 46.409724 0.677696 12.507460 9.180866 3.374800 -0.000000 -83.791300
-9.905238 16.584067 -1.809049 69.770758 85.641500 94.315715 -7.976243 -0.279456 -0.307884 -15.374347 -3.662504 -49.317855 -2.542507 1.363996 30.024773 0.927741 4.429901 -2.634332 0.720700 -0.000000 -24.355500 12.253628 -1.360405 -4.561746 4.044593 -10.564473 -18.980073 0.234312 -3.770631 49.282788 0.465687 11.950860 11.631747 3.805600 0.000000 -83.423500
-9.738337 16.561123 -1.787784 68.749295 85.184184 92.869938 -7.865777 -0.169451 -0.585837 -16.033903 -3.292752 -48.861580 -2.530053 1.513180 31.825327 0.995193 4.599930 -3.863356 0.592500 0.000000 -24.388500 12.512583 -1.149740 -4.664650 3.269754 -10.904894 -19.843987 -0.093501 -3.940218 52.066128 0.230023 11.204883 14.047063 4.125000 0.000001 -81.815699
-9.574036 16.546919 -1.769879 67.998647 84.753951 91.700088 -7.774045 -0.069801 -0.856053 -16.633274 -2.927678 -48.195545 -2.536182 1.618722 33.235240 1.073427 4.811105 -5.196853 0.447500 0.000000 -24.810200 12.725025 -0.927363 -4.771048 2.577341 -11.162729 -20.706080 -0.383241 -4.094634 54.739920 -0.016648 10.263213 16.273773 4.274000 0.000001 -79.237800
-9.411760 16.541236 -1.756021 67.431399 84.362183 90.721781 -7.706800 0.017623 -1.108150 -17.146132 -2.591104 -47.333544 -2.555221 1.683323 34.255626 1.160570 5.064784 -6.545916 0.291300 -0.000000 -25.547200 12.888252 -0.703229 -4.883208 1.982750 -11.356658 -21.569060 -0.634145 -4.239397 57.290736 -0.262351 9.121253 18.177794 4.211700 -0.000000 -76.059000
-9.250882 16.543736 -1.746934 66.961283 84.028743 89.860386 -7.672793 0.086479 -1.334240 -17.538414 -2.297424 -46.314162 -2.579481 1.711772 34.913532 1.252564 5.352917 -7.827015 0.130700 0.000000 -26.492900 12.996612 -0.489150 -5.000739 1.518478 -11.488911 -22.443948 -0.851015 -4.378346 59.704357 -0.497983 7.771766 19.655790 3.918800 0.000000 -72.676000
-9.090752 16.553865 -1.742550 66.512905 83.759962 89.048909 -7.673619 0.135846 -1.527572 -17.798932 -2.059351 -45.173473 -2.602609 1.708907 35.241239 1.345346 5.671675 -8.964911 -0.025200 -0.000001 -27.523800 13.052775 -0.291788 -5.120092 1.193711 -11.563977 -23.343162 -1.041991 -4.513469 61.971766 -0.718076 6.229269 20.644533 3.408600 -0.000000 -69.387600
-8.930758 16.570974 -1.742579 66.012963 83.564922 88.227348 -7.711358 0.163596 -1.684650 -17.917454 -1.878709 -43.961735 -2.618488 1.681038 35.289082 1.434143 6.011121 -9.905629 -0.166900 -0.000000 -28.518900 13.058119 -0.116851 -5.235352 1.025651 -11.574629 -24.283924 -1.214741 -4.644180 64.082363 -0.920074 4.522470 21.114079 2.718400 0.000000 -66.369600
-8.770475 16.594363 -1.746212 65.400432 83.442738 87.343175 -7.782727 0.172056 -1.804504 -17.901993 -1.750551 -42.722206 -2.623384 1.634233 35.107714 1.515259 6.363770 -10.615856 -0.285801 0.000000 -29.385500 13.019150 0.034092 -5.338693 1.013638 -11.514439 -25.278289 -1.374800 -4.768321 66.023685 -1.103326 2.703046 21.066981 1.909100 -0.000000 -63.686100
-8.609535 16.623264 -1.752361 64.615173 83.389884 86.345652 -7.882966 0.164163 -1.889922 -17.766389 -1.659524 -41.499387 -2.615821 1.574774 34.752050 1.585718 6.718021 -11.088707 -0.376200 -0.000000 -30.066400 12.942753 0.161381 -5.422002 1.154520 -11.373168 -26.336387 -1.524453 -4.882624 67.779658 -1.267969 0.836661 20.532631 1.052200 -0.000000 -61.315300
-8.447733 16.656975 -1.759658 63.601924 83.396076 85.183699 -8.004586 0.145519 -1.945776 -17.535819 -1.582857 -40.326384 -2.597034 1.507917 34.269991 1.643937 7.062397 -11.338444 -0.435100 -0.000000 -30.544401 12.837909 0.267342 -5.476296 1.432519 -11.141137 -27.461322 -1.662988 -4.983501 69.331711 -1.414013 -0.998853 19.565415 0.222400 0.000000 -59.175400
